<?xml version="1.0" standalone="no"?>
<!DOCTYPE svg PUBLIC "-//W3C//DTD SVG 20010904//EN"
 "http://www.w3.org/TR/2001/REC-SVG-20010904/DTD/svg10.dtd">
<svg version="1.0" xmlns="http://www.w3.org/2000/svg"
 width="225.000000pt" height="225.000000pt" viewBox="0 0 225.000000 225.000000"
 preserveAspectRatio="xMidYMid meet">

<g transform="translate(0.000000,225.000000) scale(0.100000,-0.100000)"
fill="#000000" stroke="none">
<path d="M1128 1443 c7 -3 16 -2 19 1 4 3 -2 6 -13 5 -11 0 -14 -3 -6 -6z"/>
<path d="M1150 1424 c0 -10 31 -36 37 -31 3 3 -2 13 -10 22 -16 15 -27 19 -27
9z"/>
<path d="M1130 1390 c0 -5 7 -10 16 -10 8 0 12 5 9 10 -3 6 -10 10 -16 10 -5
0 -9 -4 -9 -10z"/>
<path d="M1245 1390 c27 -12 43 -12 25 0 -8 5 -22 9 -30 9 -10 0 -8 -3 5 -9z"/>
<path d="M1327 1359 c7 -7 15 -10 18 -7 3 3 -2 9 -12 12 -14 6 -15 5 -6 -5z"/>
<path d="M1376 1344 l-38 -26 -24 23 c-13 12 -24 19 -24 14 0 -9 40 -45 49
-45 9 0 81 50 81 55 0 8 -4 6 -44 -21z"/>
<path d="M1470 1340 c0 -5 5 -10 10 -10 6 0 10 5 10 10 0 6 -4 10 -10 10 -5 0
-10 -4 -10 -10z"/>
<path d="M1512 1330 c0 -14 2 -19 5 -12 2 6 2 18 0 25 -3 6 -5 1 -5 -13z"/>
<path d="M1267 1333 c-8 -15 0 -57 11 -61 6 -2 22 4 34 12 12 9 17 16 11 16
-7 0 -15 -4 -18 -10 -13 -22 -32 -9 -30 20 2 30 0 36 -8 23z"/>
<path d="M1460 1305 c0 -8 4 -15 10 -15 5 0 7 7 4 15 -4 8 -8 15 -10 15 -2 0
-4 -7 -4 -15z"/>
<path d="M1114 1289 c-2 -4 5 -6 17 -4 33 7 65 -34 39 -50 -11 -7 -71 22 -82
39 -4 6 -11 7 -15 2 -4 -5 -3 -11 4 -13 7 -2 29 -16 49 -29 34 -24 37 -24 50
-7 7 10 14 21 14 26 0 4 7 7 15 7 8 0 15 4 15 9 0 5 -8 8 -17 6 -10 -1 -25 3
-33 10 -17 14 -48 16 -56 4z"/>
<path d="M766 1274 c-3 -9 -1 -23 4 -32 9 -14 10 -13 5 5 -3 12 -1 24 5 28 5
3 10 2 10 -2 0 -10 53 -43 67 -43 4 1 -5 8 -20 16 -35 19 -30 28 8 14 15 -6
30 -8 33 -5 3 3 0 5 -7 5 -7 0 -10 4 -7 9 4 5 -4 7 -16 3 -15 -4 -19 -2 -13 7
6 10 3 11 -13 2 -14 -7 -23 -8 -27 -1 -9 15 -22 12 -29 -6z"/>
<path d="M953 1278 c-13 -6 -23 -15 -23 -20 0 -5 11 -1 25 8 35 23 42 11 9
-15 -15 -11 -22 -21 -17 -21 5 0 22 14 38 30 25 26 26 30 9 29 -10 0 -29 -5
-41 -11z"/>
<path d="M413 1273 c9 -2 25 -2 35 0 9 3 1 5 -18 5 -19 0 -27 -2 -17 -5z"/>
<path d="M1782 1268 c-7 -7 -12 -17 -12 -22 0 -6 7 -3 15 8 8 10 19 15 26 10
8 -4 10 -3 5 4 -9 15 -19 15 -34 0z"/>
<path d="M1856 1271 c-6 -10 51 -8 61 3 3 3 -8 6 -25 6 -17 0 -33 -4 -36 -9z"/>
<path d="M415 1250 c27 -12 43 -12 25 0 -8 5 -22 9 -30 9 -10 0 -8 -3 5 -9z"/>
<path d="M1485 1231 c-5 -18 23 -126 31 -118 2 2 -2 28 -10 57 -8 29 -12 60
-9 67 3 7 3 13 0 13 -3 0 -8 -9 -12 -19z"/>
<path d="M1878 1243 c7 -3 16 -2 19 1 4 3 -2 6 -13 5 -11 0 -14 -3 -6 -6z"/>
<path d="M890 1226 c0 -21 17 -29 37 -16 16 9 15 10 -4 5 -18 -5 -22 -3 -17 9
3 9 1 16 -5 16 -6 0 -11 -6 -11 -14z"/>
<path d="M1791 1226 c-1 -12 -6 -16 -16 -13 -8 4 -17 1 -21 -5 -4 -7 -3 -8 4
-4 7 4 12 2 12 -6 0 -8 5 -7 16 4 9 9 14 22 11 30 -4 8 -6 7 -6 -6z"/>
<path d="M1855 1220 c10 -11 20 -18 23 -15 7 6 -18 35 -31 35 -5 0 -2 -9 8
-20z"/>
<path d="M346 1221 c-3 -5 3 -11 13 -14 14 -3 18 -1 14 9 -6 16 -19 18 -27 5z"/>
<path d="M455 1221 c-3 -5 0 -13 6 -17 7 -4 9 -3 5 4 -3 5 0 13 6 15 9 4 10 6
1 6 -6 1 -14 -3 -18 -8z"/>
<path d="M537 1199 c-9 -6 -27 -7 -40 -4 -21 6 -21 6 -2 -7 25 -15 47 -19 39
-7 -8 13 10 11 26 -3 12 -11 12 -10 2 3 -6 9 -9 19 -5 22 9 10 1 8 -20 -4z"/>
<path d="M1704 1199 c-3 -6 -2 -15 3 -20 5 -5 9 -1 9 11 0 23 -2 24 -12 9z"/>
<path d="M1899 1175 c-9 -19 -13 -35 -8 -35 5 0 12 0 16 0 4 0 8 16 10 35 1
19 1 35 0 35 -1 -1 -9 -16 -18 -35z"/>
<path d="M334 1177 c1 -24 2 -25 14 -10 6 9 12 22 12 27 0 6 -4 5 -9 -3 -7
-11 -9 -11 -14 0 -2 8 -4 2 -3 -14z"/>
<path d="M1740 1165 c-11 -13 -10 -14 4 -9 9 3 16 10 16 15 0 13 -6 11 -20 -6z"/>
<path d="M1259 1150 c-13 -10 -20 -19 -16 -20 5 0 15 7 24 15 9 10 24 13 37
10 17 -5 18 -4 6 4 -20 15 -24 14 -51 -9z"/>
<path d="M1350 1158 c0 -9 6 -18 14 -21 10 -4 12 -18 9 -54 -7 -58 2 -55 10 4
4 33 1 47 -14 64 -14 17 -19 18 -19 7z"/>
<path d="M1690 1151 c0 -5 7 -12 16 -15 24 -9 27 -7 10 9 -17 17 -26 19 -26 6z"/>
<path d="M742 1125 c-7 -14 -12 -31 -12 -38 1 -7 7 3 16 22 17 39 13 54 -4 16z"/>
<path d="M1060 1143 c5 -2 8 -9 5 -13 -3 -5 0 -12 6 -15 7 -5 10 -1 7 10 -1
10 -9 20 -16 21 -7 1 -8 0 -2 -3z"/>
<path d="M350 1130 c-9 -6 -10 -10 -3 -10 6 0 15 5 18 10 8 12 4 12 -15 0z"/>
<path d="M600 1132 c0 -12 19 -26 26 -19 2 2 -2 10 -11 17 -9 8 -15 8 -15 2z"/>
<path d="M1275 1130 c-3 -6 1 -7 9 -4 18 7 21 14 7 14 -6 0 -13 -4 -16 -10z"/>
<path d="M1811 1075 c-30 -30 -50 -55 -45 -55 4 0 18 12 30 27 18 23 24 25 37
15 12 -10 16 -10 21 0 5 10 7 10 12 1 3 -7 10 -13 16 -13 6 0 5 6 -2 15 -7 9
-21 13 -31 10 -27 -9 -24 2 9 30 15 13 23 24 17 24 -5 1 -34 -24 -64 -54z"/>
<path d="M1210 1105 c-7 -8 -8 -15 -2 -15 5 0 15 7 22 15 7 8 8 15 2 15 -5 0
-15 -7 -22 -15z"/>
<path d="M1648 1106 c-19 -14 -23 -26 -10 -26 4 0 13 9 20 20 14 23 13 24 -10
6z"/>
<path d="M1905 1110 c3 -5 8 -10 11 -10 2 0 4 5 4 10 0 6 -5 10 -11 10 -5 0
-7 -4 -4 -10z"/>
<path d="M700 1103 c7 -3 4 -10 -7 -19 -17 -13 -17 -14 0 -8 11 4 17 2 15 -6
-2 -7 4 -15 12 -17 9 -3 11 -1 5 4 -6 4 -11 17 -10 27 0 11 -6 20 -13 22 -7 1
-8 0 -2 -3z"/>
<path d="M976 1082 l-19 -27 26 24 c28 26 32 31 20 31 -5 0 -17 -13 -27 -28z"/>
<path d="M1125 1100 c-3 -5 3 -13 13 -19 14 -7 19 -6 19 4 0 17 -24 28 -32 15z"/>
<path d="M1250 1101 c0 -6 5 -13 10 -16 6 -3 10 1 10 9 0 9 -4 16 -10 16 -5 0
-10 -4 -10 -9z"/>
<path d="M866 1091 c3 -7 2 -16 -4 -20 -7 -4 -5 -13 5 -26 12 -16 14 -16 10
-3 -5 13 -1 17 15 15 11 -1 23 4 26 12 3 10 0 12 -13 7 -11 -4 -23 0 -32 11
-8 10 -11 12 -7 4z"/>
<path d="M1025 1090 c3 -5 8 -10 11 -10 2 0 4 5 4 10 0 6 -5 10 -11 10 -5 0
-7 -4 -4 -10z"/>
<path d="M1400 1090 c0 -8 5 -22 10 -30 9 -13 10 -13 10 0 0 8 -5 22 -10 30
-9 13 -10 13 -10 0z"/>
<path d="M443 1075 c0 -8 4 -12 9 -9 5 3 6 10 3 15 -9 13 -12 11 -12 -6z"/>
<path d="M1183 1079 c9 -6 15 -14 12 -20 -4 -5 -1 -9 4 -9 6 0 11 4 11 8 0 12
-22 32 -34 32 -6 0 -3 -5 7 -11z"/>
<path d="M1646 1055 c-15 -19 -22 -35 -17 -35 6 0 11 4 11 8 0 5 9 18 21 31
12 12 19 24 16 27 -2 2 -16 -11 -31 -31z"/>
<path d="M992 1065 c-7 -8 -9 -15 -4 -15 5 0 15 7 22 15 16 19 -1 19 -18 0z"/>
<path d="M482 1054 c10 -10 20 -16 22 -13 3 3 -5 11 -17 18 -21 13 -21 12 -5
-5z"/>
<path d="M1160 1060 c-9 -6 -10 -10 -3 -10 6 0 15 5 18 10 8 12 4 12 -15 0z"/>
<path d="M1240 1060 c0 -5 5 -10 10 -10 6 0 10 5 10 10 0 6 -4 10 -10 10 -5 0
-10 -4 -10 -10z"/>
<path d="M1610 1060 c0 -5 5 -10 11 -10 5 0 7 5 4 10 -3 6 -8 10 -11 10 -2 0
-4 -4 -4 -10z"/>
<path d="M1580 1050 c0 -5 5 -10 10 -10 6 0 10 5 10 10 0 6 -4 10 -10 10 -5 0
-10 -4 -10 -10z"/>
<path d="M841 1034 c0 -11 3 -14 6 -6 3 7 2 16 -1 19 -3 4 -6 -2 -5 -13z"/>
<path d="M1391 1025 c0 -17 -6 -36 -13 -43 -9 -9 -9 -12 0 -12 14 0 26 41 19
67 -3 11 -5 6 -6 -12z"/>
<path d="M1540 1026 c5 -16 17 -21 43 -22 26 -1 34 2 30 13 -4 10 -9 11 -19 2
-11 -9 -14 -8 -14 1 0 9 -4 9 -16 -1 -15 -12 -16 -11 -10 7 4 14 2 21 -8 21
-10 0 -12 -6 -6 -21z"/>
<path d="M1420 1013 c0 -4 5 -15 10 -23 8 -13 10 -13 10 2 0 9 -4 20 -10 23
-5 3 -10 3 -10 -2z"/>
<path d="M1810 1014 c0 -5 7 -18 15 -28 8 -11 15 -16 15 -10 0 5 -7 18 -15 28
-8 11 -15 16 -15 10z"/>
<path d="M512 996 c-21 -11 -17 -12 37 -12 39 0 55 4 45 9 -8 5 -22 6 -30 3
-8 -3 -14 -1 -14 4 0 13 -10 12 -38 -4z"/>
<path d="M1758 989 c-28 -21 -36 -39 -18 -39 6 0 10 7 10 15 0 8 9 15 20 15
11 0 20 7 20 15 0 19 1 19 -32 -6z"/>
<path d="M1441 954 c0 -11 3 -14 6 -6 3 7 2 16 -1 19 -3 4 -6 -2 -5 -13z"/>
<path d="M1691 953 c-7 -8 -11 -16 -8 -19 2 -2 10 2 17 11 17 20 9 27 -9 8z"/>
<path d="M650 940 c8 -5 20 -10 25 -10 6 0 3 5 -5 10 -8 5 -19 10 -25 10 -5 0
-3 -5 5 -10z"/>
<path d="M800 921 c0 -9 -13 -12 -44 -10 -24 2 -42 1 -39 -3 7 -12 81 -9 88 3
4 6 4 13 1 16 -3 4 -6 1 -6 -6z"/>
<path d="M1679 909 c16 -6 28 -6 35 1 7 7 -1 10 -24 9 -33 0 -34 -1 -11 -10z"/>
<path d="M660 900 c0 -5 7 -7 15 -4 8 4 15 8 15 10 0 2 -7 4 -15 4 -8 0 -15
-4 -15 -10z"/>
<path d="M1485 900 c4 -6 11 -8 16 -5 14 9 11 15 -7 15 -8 0 -12 -5 -9 -10z"/>
<path d="M1548 903 c18 -2 45 -2 60 0 15 2 0 4 -33 4 -33 0 -45 -2 -27 -4z"/>
</g>
</svg>
